<svg xmlns="http://www.w3.org/2000/svg" width="512" height="512" viewBox="0 0 512 512">
  <defs>
    <linearGradient id="bg" x1="0" y1="0" x2="1" y2="1">
      <stop offset="0%" stop-color="#1a1a2e"/>
      <stop offset="100%" stop-color="#0d0d18"/>
    </linearGradient>
    <linearGradient id="hp" x1="0.5" y1="0" x2="0.5" y2="1">
      <stop offset="0%" stop-color="#4ade80"/>
      <stop offset="100%" stop-color="#16a34a"/>
    </linearGradient>
  </defs>
  <!-- Background -->
  <rect width="512" height="512" rx="112" fill="url(#bg)"/>
  <rect x="6" y="6" width="500" height="500" rx="108" fill="none" stroke="#22c55e" stroke-opacity="0.1" stroke-width="1.5"/>
  <!-- Headphone (Phosphor ph:headphones-fill, centré) -->
  <g transform="translate(51.2, 51.2) scale(1.6)">
    <path fill="url(#hp)" d="M232 128v56a24 24 0 0 1-24 24h-16a24 24 0 0 1-24-24v-40a24 24 0 0 1 24-24h23.65A87.71 87.71 0 0 0 128.68 40H128a88 88 0 0 0-87.64 80H64a24 24 0 0 1 24 24v40a24 24 0 0 1-24 24H48a24 24 0 0 1-24-24v-56a104.11 104.11 0 0 1 177.89-73.34A103.4 103.4 0 0 1 232 128"/>
  </g>
</svg>
